<?xml version="1.0" standalone="no"?>
<!DOCTYPE svg PUBLIC "-//W3C//DTD SVG 20010904//EN"
 "http://www.w3.org/TR/2001/REC-SVG-20010904/DTD/svg10.dtd">
<svg version="1.0" xmlns="http://www.w3.org/2000/svg"
 width="1280.000000pt" height="1222.000000pt" viewBox="0 0 1280.000000 1222.000000"
 preserveAspectRatio="xMidYMid meet">
<metadata>
Created by potrace 1.15, written by Peter Selinger 2001-2017
</metadata>
<g transform="translate(0.000000,1222.000000) scale(0.100000,-0.100000)"
fill="#000000" stroke="none">
<path d="M11030 12196 c-169 -60 -371 -192 -586 -383 l-72 -63 -48 22 c-68 30
-189 36 -250 13 -88 -34 -313 -229 -493 -429 -485 -538 -1069 -1396 -1543
-2264 -104 -193 -118 -232 -99 -299 16 -61 62 -134 111 -176 l39 -33 -81 -139
c-118 -206 -389 -698 -522 -950 -244 -460 -796 -1580 -796 -1614 0 -5 -4 -13
-10 -16 -19 -12 178 525 359 975 61 152 107 278 102 283 -11 11 -114 -168
-257 -448 -306 -599 -558 -1263 -793 -2095 -41 -146 -106 -342 -161 -485 -216
-567 -415 -1168 -547 -1650 -20 -77 -39 -132 -41 -123 -2 10 -8 18 -13 18 -5
0 -12 0 -16 1 -5 0 -11 -10 -15 -23 -30 -93 68 424 143 757 228 1011 509 1899
838 2650 107 244 301 622 343 670 22 24 36 49 33 55 -9 14 107 208 246 415
112 165 266 365 382 494 73 80 89 117 38 84 -70 -44 -195 -150 -277 -236 -204
-211 -399 -482 -610 -849 -52 -90 -107 -169 -163 -232 -148 -168 -314 -402
-436 -613 -26 -46 -49 -83 -51 -83 -2 0 6 24 17 53 12 28 34 86 49 127 114
307 458 1139 660 1600 62 140 118 269 125 285 12 27 21 32 74 43 42 9 68 21
86 40 14 15 69 119 122 232 253 539 741 1472 1187 2270 143 254 145 264 101
375 l-26 64 77 123 c162 260 344 514 488 681 81 94 106 150 106 234 0 97 -52
129 -132 80 -90 -54 -325 -378 -579 -797 -64 -106 -112 -174 -120 -173 -8 2
-37 8 -66 15 -85 19 -122 2 -229 -106 -211 -213 -446 -589 -745 -1193 -287
-581 -646 -1406 -656 -1508 -9 -90 54 -206 145 -267 23 -15 23 -17 7 -47 -8
-17 -65 -145 -126 -284 -489 -1115 -961 -2337 -1239 -3205 -34 -107 -63 -192
-64 -190 -7 7 61 538 105 818 121 784 267 1406 526 2240 47 151 87 278 90 283
2 4 -2 7 -10 7 -29 0 -231 -457 -358 -810 -354 -989 -596 -2278 -694 -3710 -4
-47 -24 -170 -46 -275 -44 -206 -49 -226 -56 -208 -2 6 3 35 11 64 9 29 16 56
16 61 0 16 -28 8 -41 -13 -38 -56 51 1293 131 1997 206 1820 606 3277 1146
4172 71 118 -3 67 -121 -84 -102 -129 -189 -274 -300 -499 -341 -688 -633
-1720 -839 -2970 -129 -777 -209 -1518 -272 -2515 -8 -140 -17 -257 -20 -259
-2 -2 -4 12 -4 31 l0 36 -37 -8 c-21 -5 -69 -11 -108 -15 -161 -14 -178 -16
-166 -28 6 -6 11 -15 11 -20 0 -5 -9 2 -21 17 -28 35 -53 35 -46 -1 5 -25 4
-26 -8 -9 -12 16 -23 17 -112 11 -59 -5 -90 -11 -78 -15 11 -4 -65 -10 -170
-14 -104 -4 -226 -9 -270 -11 -44 -3 -174 -9 -290 -15 -987 -48 -1915 -149
-2390 -260 -47 -11 -103 -18 -128 -15 -37 4 -52 -1 -88 -25 -50 -33 -175 -80
-202 -76 -9 1 -34 18 -54 37 l-37 34 38 -48 c21 -26 37 -50 35 -51 -2 -2 -23
-13 -47 -25 -60 -31 -119 -86 -132 -126 -38 -117 149 -244 545 -369 85 -27 84
-35 -1 -12 -28 7 -58 10 -65 5 -8 -4 -71 -13 -139 -19 -69 -6 -128 -16 -131
-22 -4 -5 -21 11 -39 36 -39 54 -49 60 -23 14 33 -59 176 -194 273 -258 578
-380 1874 -693 3495 -845 83 -7 191 -16 240 -19 81 -4 84 -4 25 4 -36 4 -105
12 -155 16 l-90 8 90 7 c50 4 135 12 190 18 143 16 255 28 370 40 55 6 141 15
190 21 50 6 133 15 185 20 52 6 133 15 180 20 47 5 132 14 190 20 115 12 226
24 365 40 120 13 247 27 375 40 121 13 241 26 370 40 129 14 249 27 370 40
111 12 217 23 368 40 138 15 255 28 372 40 58 6 143 15 190 20 47 5 128 14
180 20 52 5 136 14 185 20 193 22 296 32 435 45 l145 13 -125 3 c-95 2 -106 4
-45 6 1503 50 2705 180 3255 352 81 25 91 20 13 -7 l-58 -20 60 5 c33 3 103
11 155 18 l94 13 -39 -35 -40 -35 49 33 c73 51 179 169 212 235 26 53 29 69
29 154 0 87 -3 100 -32 155 -17 33 -49 81 -72 106 l-40 46 30 29 c17 16 43 56
60 89 28 58 29 64 20 128 -12 82 -46 140 -130 220 -222 212 -780 421 -1549
581 -165 34 -264 48 -157 22 l50 -12 -50 -7 c-96 -14 -701 -67 -775 -68 l-75
-2 105 -12 c58 -7 74 -10 35 -7 -38 3 -297 6 -575 7 -466 2 -652 7 -738 21
-19 3 -32 1 -28 -4 3 -5 -73 -17 -172 -26 -97 -10 -240 -24 -317 -32 -351 -35
-479 -47 -660 -64 -55 -5 -147 -14 -205 -19 -58 -6 -194 -20 -303 -30 -167
-16 -201 -22 -213 -38 -13 -16 -13 -16 -5 8 16 45 268 545 404 799 1101 2073
2223 3557 3245 4295 76 54 119 92 114 97 -13 13 -211 -82 -334 -159 -232 -146
-470 -347 -764 -645 -619 -627 -1278 -1504 -1951 -2598 -217 -352 -611 -1047
-737 -1299 -21 -40 -39 -71 -42 -69 -2 3 25 79 60 169 520 1342 1362 2820
2299 4038 l78 102 37 -8 c20 -4 78 -8 127 -8 74 0 98 4 136 23 44 21 54 34
144 190 364 627 752 1086 1199 1417 186 137 333 226 553 332 149 73 152 75
159 111 9 48 -10 140 -44 209 l-27 55 30 24 c51 41 283 194 400 262 143 83
206 116 340 172 110 46 110 46 138 101 70 138 29 225 -95 205 -159 -26 -595
-257 -922 -488 l-78 -56 -42 27 c-85 57 -173 75 -253 52 -33 -9 -214 -134
-363 -250 -496 -384 -1095 -1006 -1655 -1716 -65 -82 -126 -168 -136 -190 -39
-84 -18 -191 55 -280 l34 -41 -45 -59 c-667 -885 -1241 -1815 -1700 -2750 -56
-115 -103 -207 -103 -204 0 10 144 432 213 624 293 810 617 1526 1084 2392 25
47 40 84 34 87 -12 8 -57 -52 -197 -259 -745 -1100 -1301 -2441 -1859 -4480
-85 -312 -97 -352 -89 -290 4 27 2 36 -4 26 -8 -11 -10 -11 -15 0 -3 8 -8 -6
-13 -31 -4 -25 -9 -40 -11 -33 -9 26 138 909 197 1183 5 25 28 135 50 245 44
214 59 259 218 650 305 750 599 1396 1013 2225 332 664 510 999 846 1591 l134
236 51 -14 c62 -15 158 -17 210 -3 48 14 70 41 200 255 370 606 846 1299 1618
2355 l215 295 -1 60 c0 41 -7 73 -22 102 l-22 41 101 84 c143 118 267 202 394
264 107 54 111 56 139 111 18 37 29 74 30 106 1 42 -3 52 -27 73 -36 31 -90
31 -177 0z m-4964 -6568 c-149 -318 -312 -738 -472 -1213 -204 -605 -362
-1188 -519 -1915 -47 -218 -53 -240 -54 -213 -1 20 -6 23 -38 20 -22 -1 -41
-8 -46 -17 -4 -8 -5 46 -3 120 4 142 18 223 106 585 212 878 498 1680 821
2305 81 156 240 432 246 426 2 -1 -17 -46 -41 -98z m4401 -2924 c-3 -3 -12 -4
-19 -1 -8 3 -5 6 6 6 11 1 17 -2 13 -5z m-1939 -91 c-10 -2 -26 -2 -35 0 -10
3 -2 5 17 5 19 0 27 -2 18 -5z m-105 -10 c-7 -2 -21 -2 -30 0 -10 3 -4 5 12 5
17 0 24 -2 18 -5z m1415 0 c-10 -2 -28 -2 -40 0 -13 2 -5 4 17 4 22 1 32 -1
23 -4z m-1495 -10 c-7 -2 -21 -2 -30 0 -10 3 -4 5 12 5 17 0 24 -2 18 -5z
m1584 1 c-3 -3 -12 -4 -19 -1 -8 3 -5 6 6 6 11 1 17 -2 13 -5z m-1670 -10 c-3
-3 -12 -4 -19 -1 -8 3 -5 6 6 6 11 1 17 -2 13 -5z m-50 -10 c-3 -3 -12 -4 -19
-1 -8 3 -5 6 6 6 11 1 17 -2 13 -5z m-7712 -724 c-11 -5 -27 -9 -35 -9 -9 0
-8 4 5 9 11 5 27 9 35 9 9 0 8 -4 -5 -9z m7838 -1227 c-40 -2 -106 -2 -145 0
-40 1 -8 3 72 3 80 0 112 -2 73 -3z m-4420 -490 c-7 -2 -19 -2 -25 0 -7 3 -2
5 12 5 14 0 19 -2 13 -5z"/>
<path d="M10248 2753 c6 -2 18 -2 25 0 6 3 1 5 -13 5 -14 0 -19 -2 -12 -5z"/>
<path d="M10308 2743 c7 -3 16 -2 19 1 4 3 -2 6 -13 5 -11 0 -14 -3 -6 -6z"/>
<path d="M4303 83 c15 -2 37 -2 50 0 12 2 0 4 -28 4 -27 0 -38 -2 -22 -4z"/>
<path d="M4443 73 c9 -2 23 -2 30 0 6 3 -1 5 -18 5 -16 0 -22 -2 -12 -5z"/>
</g>
</svg>
