<?xml version="1.0" encoding="utf-8"?>
<!-- Generator: Adobe Illustrator 27.8.1, SVG Export Plug-In . SVG Version: 6.00 Build 0)  -->
<svg version="1.1" id="Layer_1" xmlns="http://www.w3.org/2000/svg" xmlns:xlink="http://www.w3.org/1999/xlink" x="0px" y="0px"
	 viewBox="0 0 628.4 375" style="enable-background:new 0 0 628.4 375;" xml:space="preserve">
<g>
	<path fill="#3a3a3a" d="M601.7,164.2C555.3,81.1,416.8,20.9,273.5,20.4l0,0c-4.6,0-9.2,0-13.9,0.1C111.4,24.1,6.8,91.4,14.7,178.2
		c7.9,86.8,125.8,166.3,276.1,186.2c19.8-55.1,21.1-112.5,25-169.6c-51.5,27.8-118.1,37.1-181,50.9c49-18.2,97.5-37,142.3-60.1
		c-53.7-15.5-104.8-41.5-156.8-64.1c56.2,14.1,111.9,30.5,168.9,40.5c-8.1-27.7-11.4-57.2-17-85.9c14.6,29.4,25.5,60.3,45.6,87.6
		c64.3-13.6,121.7-35,181.5-53.6c-46.7,23.4-92.3,48.8-141.2,68c47.6,13.2,98.2,22.3,148.3,32c-64.2-1-128.2-2.7-190.4-15.4l0,0
		c38.3,55.3,80.5,110.6,133.3,165.9C584.3,333.9,649.5,250.1,601.7,164.2z"/>
</g>
</svg>
