<?xml version="1.0" encoding="utf-8"?>
<!-- Generator: Adobe Illustrator 27.8.1, SVG Export Plug-In . SVG Version: 6.00 Build 0)  -->
<svg version="1.1" id="Layer_1" xmlns="http://www.w3.org/2000/svg" xmlns:xlink="http://www.w3.org/1999/xlink" x="0px" y="0px"
	 viewBox="0 0 670.7 370" style="enable-background:new 0 0 670.7 370;" xml:space="preserve">
<g>
	<path fill="#3a3a3a" d="M369.9,352.2C532.2,339,653.6,265.7,654,180.7C654.5,95.6,533.8,25,371.6,15.5c-12.7-0.7-25.3-1.1-37.8-1.1l0,0
		C186.2,14.7,52.5,67,12.3,143c99.5,18.7,199.7,33,301.2,40.3C258.3,151,227,113.9,223.7,72.6c15,36.1,60,75.7,105.8,95.1
		c-7.8-2.3,51.3-84.1,78.8-101.4c-45.9,62-58.9,105-56.4,106.1c35.3-1.9,199.3-34.7,199.3-34.7C538.9,150,432,192.5,364.9,193.2
		c35.2,26.2,71.1,46.2,109.8,62.7c-44.3-8.2-103.7-17.6-140-53.6c-29.4,23.1-106.9,68.5-146.7,83.9c35.2-20,101-75.7,131.9-99.3
		c-0.4-0.2-0.8-0.5-1.2-0.7c-100,23-202.7,37.1-306.8,46.4C54.6,314.2,207.6,365.3,369.9,352.2z"/>
</g>
</svg>
